<svg
  xmlns="http://www.w3.org/2000/svg"
  width="24"
  height="24"
  fill="none"
  viewBox="0 0 24 24"
>
  <path
    fill="#E5533D"
    fill-rule="evenodd"
    d="
      M13.06 12l3.47-3.47a.75.75 0 1 0-1.06-1.06L12 10.94
      8.53 7.47a.75.75 0 1 0-1.06 1.06L10.94 12
      7.47 15.47a.75.75 0 1 0 1.06 1.06L12 13.06
      l3.47 3.47a.75.75 0 0 0 1.06-1.06L13.06 12ZM12 2.5
      c-5.238 0-9.5 4.262-9.5 9.5
      0 5.239 4.262 9.5 9.5 9.5
      s9.5-4.261 9.5-9.5
      c0-5.238-4.262-9.5-9.5-9.5Z
    "
    clip-rule="evenodd"
  />
</svg>
